<?xml version="1.0" encoding="utf-8"?>
<!-- Generator: Adobe Illustrator 16.2.0, SVG Export Plug-In . SVG Version: 6.00 Build 0)  -->
<!DOCTYPE svg PUBLIC "-//W3C//DTD SVG 1.1//EN" "http://www.w3.org/Graphics/SVG/1.1/DTD/svg11.dtd">
<svg version="1.1" id="Layer_5" xmlns="http://www.w3.org/2000/svg" xmlns:xlink="http://www.w3.org/1999/xlink" x="0px" y="0px"
	 width="595px" height="83.5px" viewBox="0 0 595 83.5" style="enable-background:new 0 0 595 83.5;" xml:space="preserve">
<style type="text/css">
<![CDATA[
	.st0{fill:white;}
]]>
</style>
<path class="st0" d="M73,38c-0.7-5.3-2.8-10.4-6.1-14.6c-0.8-0.9-1.6-1.8-2.4-2.7C58.8,15.1,51.3,12,43.3,12c-4.7,0-9.2,1.1-13.2,3
	h1.7c7.3,0,14.1,2.8,19.3,8c1.9,1.9,3.5,4.1,4.8,6.4c2.1,3.9,3.2,8.3,3.2,12.9c0,1.2-0.1,2.5-0.3,3.7l2.5,0.9
	c0.9,0.3,1.1,1.5,0.4,2.1l-6.4,5.4c-0.7,0.6-1.8,0.2-2-0.7l-1.5-8.2c-0.2-0.9,0.7-1.7,1.6-1.4l2.3,0.8c0.1-0.9,0.1-1.7,0.2-2.6
	c0-3.7-0.9-7.3-2.4-10.5c-1.2-2.4-2.7-4.6-4.6-6.5c-4.5-4.5-10.6-7.1-17-7.1c-5.2,0-10.2,2.5-13.2,6.8c-4.1,5.8-6.1,13.2-5.1,21
	c0.7,5.3,2.8,10.4,6.1,14.6c0.8,0.9,1.6,1.8,2.4,2.7c5.7,5.7,13.2,8.8,21.2,8.8c4.7,0,9.2-1.1,13.2-3h-1.7c-7.3,0-14.1-2.8-19.3-8
	c-1.9-1.9-3.5-4.1-4.8-6.4c-2.1-3.9-3.2-8.3-3.2-12.9c0-1.3,0.1-2.5,0.3-3.7l-2.5-0.9c-0.9-0.3-1.1-1.5-0.4-2.1l6.4-5.4
	c0.7-0.6,1.8-0.2,2,0.7l1.5,8.2c0.2,0.9-0.7,1.7-1.6,1.4l-2.3-0.8c-0.1,0.9-0.2,1.8-0.2,2.6c0,3.7,0.9,7.3,2.4,10.5
	c1.2,2.4,2.7,4.6,4.6,6.5c4.5,4.5,10.6,7.1,17,7.1c5.2,0,10.2-2.5,13.2-6.8C72,53.2,74,45.9,73,38z"/>
<g>
	<path class="st0" d="M114.8,60c0,0.2-0.1,0.4-0.2,0.6s-0.3,0.3-0.6,0.4s-0.7,0.2-1.2,0.2s-1.2,0.1-2,0.1c-1.3,0-2.2,0-2.7-0.1
		s-1-0.2-1.2-0.4s-0.4-0.4-0.6-0.7l-11.5-18v18c0,0.2-0.1,0.4-0.2,0.6S94.3,60.9,94,61s-0.7,0.2-1.2,0.2s-1.1,0.1-1.9,0.1
		c-0.7,0-1.4,0-1.9-0.1S88.2,61.1,88,61s-0.5-0.2-0.6-0.4s-0.2-0.3-0.2-0.6V24.3c0-0.2,0.1-0.4,0.2-0.6c0.1-0.2,0.3-0.3,0.6-0.4
		c0.3-0.1,0.7-0.2,1.2-0.2s1.1-0.1,1.9-0.1c0.8,0,1.4,0,1.9,0.1s0.9,0.1,1.2,0.2c0.3,0.1,0.5,0.2,0.6,0.4c0.1,0.2,0.2,0.3,0.2,0.6
		v16.1l11.1-16.1c0.1-0.3,0.3-0.5,0.5-0.6c0.2-0.2,0.4-0.3,0.8-0.4c0.3-0.1,0.7-0.2,1.2-0.2c0.5,0,1.1-0.1,1.9-0.1
		c0.8,0,1.4,0,1.9,0.1s0.9,0.1,1.2,0.2c0.3,0.1,0.5,0.2,0.6,0.4c0.1,0.2,0.2,0.3,0.2,0.5c0,0.3-0.1,0.7-0.3,1s-0.5,0.9-1,1.7
		l-10.4,13.6l11.3,17.1c0.4,0.8,0.7,1.3,0.8,1.6S114.8,59.9,114.8,60z"/>
	<path class="st0" d="M151,58.3c0.2,0.7,0.4,1.3,0.4,1.7s0,0.7-0.2,0.9s-0.6,0.3-1.1,0.4s-1.3,0.1-2.3,0.1c-1,0-1.8,0-2.3,0
		s-1-0.1-1.3-0.2s-0.5-0.2-0.6-0.4s-0.2-0.4-0.3-0.6l-2.5-7.6h-14.2l-2.4,7.4c-0.1,0.3-0.2,0.5-0.3,0.7s-0.3,0.3-0.6,0.4
		s-0.7,0.2-1.2,0.2s-1.2,0.1-2,0.1c-0.9,0-1.6,0-2.1-0.1s-0.9-0.2-1.1-0.4s-0.3-0.5-0.2-1s0.2-1,0.4-1.6l11.7-33.6
		c0.1-0.3,0.3-0.6,0.4-0.8s0.4-0.4,0.7-0.5c0.3-0.1,0.8-0.2,1.4-0.2s1.4,0,2.4,0c1.2,0,2.1,0,2.8,0s1.2,0.1,1.6,0.2
		c0.4,0.1,0.7,0.3,0.8,0.5c0.2,0.2,0.3,0.5,0.4,0.9L151,58.3z M133.6,30.5L133.6,30.5l-5.4,16.1H139L133.6,30.5z"/>
	<path class="st0" d="M177.1,57.9c0,0.6,0,1.1-0.1,1.5s-0.1,0.7-0.2,1s-0.2,0.5-0.4,0.6s-0.3,0.2-0.5,0.2h-17.4
		c-0.6,0-1.2-0.2-1.6-0.6s-0.7-1-0.7-1.9V24.3c0-0.2,0.1-0.4,0.2-0.5c0.1-0.2,0.3-0.3,0.6-0.4c0.3-0.1,0.7-0.2,1.2-0.2
		s1.1-0.1,1.9-0.1c0.8,0,1.4,0,1.9,0.1s0.9,0.1,1.2,0.2c0.3,0.1,0.5,0.2,0.6,0.4c0.1,0.2,0.2,0.3,0.2,0.5v30.5H176
		c0.2,0,0.4,0.1,0.5,0.2c0.1,0.1,0.3,0.3,0.4,0.5c0.1,0.2,0.2,0.6,0.2,1S177.1,57.3,177.1,57.9z"/>
	<path class="st0" d="M209.4,60c0,0.2-0.1,0.4-0.2,0.6s-0.3,0.3-0.6,0.4s-0.7,0.2-1.2,0.2s-1.2,0.1-2,0.1c-1.3,0-2.2,0-2.7-0.1
		s-1-0.2-1.2-0.4s-0.4-0.4-0.6-0.7l-11.5-18v18c0,0.2-0.1,0.4-0.2,0.6s-0.3,0.3-0.6,0.4s-0.7,0.2-1.2,0.2s-1.1,0.1-1.9,0.1
		c-0.7,0-1.4,0-1.9-0.1s-0.9-0.1-1.2-0.2s-0.5-0.2-0.6-0.4s-0.2-0.3-0.2-0.6V24.3c0-0.2,0.1-0.4,0.2-0.6c0.1-0.2,0.3-0.3,0.6-0.4
		c0.3-0.1,0.7-0.2,1.2-0.2s1.1-0.1,1.9-0.1c0.8,0,1.4,0,1.9,0.1s0.9,0.1,1.2,0.2c0.3,0.1,0.5,0.2,0.6,0.4c0.1,0.2,0.2,0.3,0.2,0.6
		v16.1l11.1-16.1c0.1-0.3,0.3-0.5,0.5-0.6c0.2-0.2,0.4-0.3,0.8-0.4c0.3-0.1,0.7-0.2,1.2-0.2c0.5,0,1.1-0.1,1.9-0.1
		c0.8,0,1.4,0,1.9,0.1s0.9,0.1,1.2,0.2c0.3,0.1,0.5,0.2,0.6,0.4c0.1,0.2,0.2,0.3,0.2,0.5c0,0.3-0.1,0.7-0.3,1s-0.5,0.9-1,1.7
		l-10.4,13.6l11.3,17.1c0.4,0.8,0.7,1.3,0.8,1.6S209.4,59.9,209.4,60z"/>
	<path class="st0" d="M244.7,47c0,2.3-0.3,4.4-1,6.2s-1.7,3.4-3,4.7s-3,2.2-4.9,2.9s-4.2,1-6.7,1c-2.4,0-4.5-0.3-6.4-0.9
		s-3.5-1.5-4.8-2.7s-2.3-2.7-3-4.5c-0.7-1.8-1-3.9-1-6.3V24.3c0-0.2,0.1-0.4,0.2-0.5c0.1-0.2,0.3-0.3,0.6-0.4
		c0.3-0.1,0.7-0.2,1.2-0.2s1.1-0.1,1.9-0.1c0.7,0,1.4,0,1.8,0.1s0.9,0.1,1.2,0.2c0.3,0.1,0.5,0.2,0.6,0.4c0.1,0.2,0.2,0.3,0.2,0.5
		v22.4c0,1.5,0.2,2.8,0.6,3.9c0.4,1.1,0.9,2,1.6,2.7s1.5,1.3,2.5,1.6c1,0.4,2,0.5,3.2,0.5c1.2,0,2.3-0.2,3.3-0.6s1.8-0.9,2.4-1.6
		c0.7-0.7,1.2-1.6,1.5-2.6c0.4-1,0.5-2.2,0.5-3.6V24.3c0-0.2,0.1-0.4,0.2-0.5c0.1-0.2,0.3-0.3,0.6-0.4c0.3-0.1,0.7-0.2,1.2-0.2
		s1.1-0.1,1.9-0.1s1.4,0,1.8,0.1s0.9,0.1,1.2,0.2c0.3,0.1,0.5,0.2,0.6,0.4c0.1,0.2,0.2,0.3,0.2,0.5V47z"/>
	<path class="st0" d="M273.7,57.9c0,0.6,0,1.1-0.1,1.5s-0.1,0.7-0.2,1s-0.2,0.5-0.4,0.6s-0.3,0.2-0.5,0.2h-17.4
		c-0.6,0-1.2-0.2-1.6-0.6s-0.7-1-0.7-1.9V24.3c0-0.2,0.1-0.4,0.2-0.5c0.1-0.2,0.3-0.3,0.6-0.4c0.3-0.1,0.7-0.2,1.2-0.2
		s1.1-0.1,1.9-0.1c0.8,0,1.4,0,1.9,0.1s0.9,0.1,1.2,0.2c0.3,0.1,0.5,0.2,0.6,0.4c0.1,0.2,0.2,0.3,0.2,0.5v30.5h11.9
		c0.2,0,0.4,0.1,0.5,0.2c0.1,0.1,0.3,0.3,0.4,0.5c0.1,0.2,0.2,0.6,0.2,1S273.7,57.3,273.7,57.9z"/>
	<path class="st0" d="M309.3,58.3c0.2,0.7,0.4,1.3,0.4,1.7s0,0.7-0.2,0.9s-0.6,0.3-1.1,0.4s-1.3,0.1-2.3,0.1c-1,0-1.8,0-2.3,0
		s-1-0.1-1.3-0.2s-0.5-0.2-0.6-0.4s-0.2-0.4-0.3-0.6l-2.5-7.6h-14.2l-2.4,7.4c-0.1,0.3-0.2,0.5-0.3,0.7s-0.3,0.3-0.6,0.4
		s-0.7,0.2-1.2,0.2s-1.2,0.1-2,0.1c-0.9,0-1.6,0-2.1-0.1s-0.9-0.2-1.1-0.4s-0.3-0.5-0.2-1s0.2-1,0.4-1.6L287,24.6
		c0.1-0.3,0.3-0.6,0.4-0.8s0.4-0.4,0.7-0.5c0.3-0.1,0.8-0.2,1.4-0.2s1.4,0,2.4,0c1.2,0,2.1,0,2.8,0s1.2,0.1,1.6,0.2
		c0.4,0.1,0.7,0.3,0.8,0.5c0.2,0.2,0.3,0.5,0.4,0.9L309.3,58.3z M291.9,30.5L291.9,30.5l-5.4,16.1h10.8L291.9,30.5z"/>
	<path class="st0" d="M335.2,26.4c0,0.6,0,1.1-0.1,1.5c0,0.4-0.1,0.7-0.2,1c-0.1,0.2-0.2,0.4-0.4,0.5s-0.3,0.2-0.5,0.2h-9.5v30.6
		c0,0.2-0.1,0.4-0.2,0.5s-0.3,0.3-0.6,0.4s-0.7,0.2-1.2,0.2s-1.1,0.1-1.9,0.1s-1.4,0-1.9-0.1s-0.9-0.1-1.2-0.2s-0.5-0.2-0.6-0.4
		s-0.2-0.3-0.2-0.5V29.5h-9.5c-0.2,0-0.4-0.1-0.5-0.2s-0.3-0.3-0.4-0.5c-0.1-0.2-0.2-0.6-0.2-1c0-0.4-0.1-0.9-0.1-1.5
		c0-0.6,0-1.1,0.1-1.5s0.1-0.7,0.2-1c0.1-0.2,0.2-0.4,0.4-0.5c0.1-0.1,0.3-0.2,0.5-0.2H334c0.2,0,0.3,0.1,0.5,0.2
		c0.1,0.1,0.3,0.3,0.4,0.5c0.1,0.2,0.2,0.6,0.2,1S335.2,25.8,335.2,26.4z"/>
	<path class="st0" d="M372.1,41.8c0,3.1-0.4,6-1.2,8.4s-1.9,4.6-3.5,6.3s-3.5,3-5.7,4s-4.9,1.4-7.9,1.4c-2.9,0-5.5-0.4-7.7-1.2
		s-4-1.9-5.5-3.5s-2.6-3.6-3.3-6s-1.1-5.3-1.1-8.7c0-3.1,0.4-5.8,1.2-8.3c0.8-2.5,1.9-4.5,3.5-6.3c1.5-1.7,3.5-3,5.7-4
		c2.3-0.9,4.9-1.4,7.9-1.4c2.9,0,5.4,0.4,7.6,1.1s4,1.9,5.5,3.5s2.6,3.6,3.3,6C371.8,35.6,372.1,38.5,372.1,41.8z M364,42.2
		c0-2-0.2-3.8-0.5-5.4c-0.3-1.6-0.8-3-1.6-4.2c-0.8-1.2-1.8-2.1-3-2.7c-1.3-0.6-2.8-1-4.7-1c-1.9,0-3.5,0.4-4.7,1.1
		c-1.3,0.7-2.3,1.7-3.1,2.9c-0.8,1.2-1.3,2.6-1.7,4.2c-0.3,1.6-0.5,3.3-0.5,5.1c0,2.1,0.2,3.9,0.5,5.6c0.3,1.7,0.8,3.1,1.6,4.2
		s1.7,2.1,3,2.7s2.8,0.9,4.7,0.9s3.5-0.4,4.7-1.1s2.3-1.7,3.1-2.9s1.3-2.6,1.7-4.2S364,44,364,42.2z"/>
	<path class="st0" d="M406.7,60.2c0,0.2,0,0.4-0.1,0.5s-0.3,0.3-0.6,0.4s-0.7,0.2-1.3,0.2s-1.3,0.1-2.3,0.1c-0.8,0-1.5,0-2-0.1
		s-0.9-0.1-1.2-0.2s-0.5-0.2-0.6-0.4s-0.2-0.4-0.3-0.6l-3.4-8.5c-0.4-1-0.8-1.8-1.2-2.5s-0.8-1.4-1.3-1.9s-1-0.9-1.7-1.1
		s-1.3-0.4-2.2-0.4h-2.4v14.4c0,0.2-0.1,0.4-0.2,0.5s-0.3,0.3-0.6,0.4s-0.7,0.2-1.2,0.2s-1.1,0.1-1.9,0.1c-0.7,0-1.4,0-1.9-0.1
		s-0.9-0.1-1.2-0.2s-0.5-0.2-0.6-0.4s-0.2-0.3-0.2-0.5V25.7c0-0.9,0.2-1.5,0.7-1.9s1-0.6,1.6-0.6h9.8c1,0,1.8,0,2.5,0.1
		c0.6,0,1.2,0.1,1.8,0.1c1.5,0.2,2.9,0.6,4.1,1.1s2.3,1.2,3.1,2.1s1.5,1.9,1.9,3c0.4,1.2,0.7,2.5,0.7,4c0,1.3-0.2,2.4-0.5,3.5
		c-0.3,1-0.8,2-1.4,2.8s-1.4,1.5-2.3,2.1c-0.9,0.6-2,1.1-3.1,1.5c0.6,0.3,1.1,0.6,1.6,1s1,0.9,1.4,1.4s0.9,1.2,1.2,1.9
		c0.4,0.7,0.8,1.5,1.1,2.4l3.2,7.5c0.3,0.7,0.5,1.3,0.6,1.6S406.7,60,406.7,60.2z M396.8,34.4c0-1.2-0.3-2.3-0.8-3.2
		c-0.6-0.9-1.5-1.5-2.8-1.8c-0.4-0.1-0.8-0.2-1.3-0.2s-1.2-0.1-2.1-0.1h-3.5v10.8h3.9c1.1,0,2.1-0.1,2.9-0.4s1.5-0.6,2.1-1.1
		c0.5-0.5,1-1,1.2-1.7C396.7,36,396.8,35.3,396.8,34.4z"/>
	<path class="st0" d="M448.1,60.5c-0.1,0.2-0.2,0.3-0.3,0.4s-0.3,0.2-0.5,0.2s-0.4,0.1-0.7,0.1s-0.6,0-0.9,0s-0.7,0-0.9,0
		s-0.5-0.1-0.7-0.1s-0.4-0.1-0.5-0.2s-0.2-0.2-0.3-0.4l-9-31.1h-0.1l-8.2,31.1c0,0.2-0.1,0.3-0.2,0.4s-0.3,0.2-0.4,0.2
		s-0.4,0.1-0.7,0.1s-0.6,0-1,0c-0.4,0-0.7,0-1,0s-0.5-0.1-0.7-0.1s-0.4-0.1-0.5-0.2s-0.2-0.2-0.3-0.4l-10.8-36.1
		c-0.1-0.3-0.1-0.6-0.1-0.7s0.1-0.3,0.2-0.4c0.1-0.1,0.3-0.2,0.6-0.2s0.6,0,1,0s0.8,0,1,0s0.4,0.1,0.6,0.1s0.2,0.1,0.3,0.2
		c0,0.1,0.1,0.2,0.1,0.4l9.5,33.3h0l8.8-33.3c0-0.1,0.1-0.3,0.1-0.4c0.1-0.1,0.2-0.2,0.3-0.2s0.4-0.1,0.6-0.1s0.6,0,1,0
		c0.3,0,0.6,0,0.8,0s0.4,0.1,0.5,0.1s0.2,0.1,0.3,0.2c0.1,0.1,0.1,0.2,0.2,0.4l9.6,33.3h0.1l9.3-33.3c0-0.1,0.1-0.3,0.1-0.4
		c0-0.1,0.1-0.2,0.3-0.2s0.3-0.1,0.6-0.1s0.6,0,1,0c0.4,0,0.8,0,1,0.1c0.3,0,0.4,0.1,0.6,0.2c0.1,0.1,0.2,0.2,0.2,0.4s0,0.4-0.1,0.7
		L448.1,60.5z"/>
	<path class="st0" d="M490.9,60c0.1,0.3,0.2,0.5,0.2,0.7s-0.1,0.3-0.2,0.4s-0.3,0.2-0.6,0.2s-0.6,0-1,0s-0.7,0-1,0s-0.4-0.1-0.6-0.1
		s-0.2-0.1-0.3-0.2s-0.1-0.2-0.2-0.4l-3.6-10.1H467l-3.5,10c0,0.1-0.1,0.3-0.2,0.4s-0.2,0.2-0.3,0.2s-0.3,0.1-0.6,0.2
		s-0.6,0.1-0.9,0.1c-0.4,0-0.8,0-1-0.1s-0.5-0.1-0.6-0.2s-0.2-0.2-0.2-0.4s0-0.4,0.2-0.7l13.3-36.1c0.1-0.2,0.1-0.3,0.3-0.4
		c0.1-0.1,0.3-0.2,0.5-0.2s0.4-0.1,0.7-0.1s0.6,0,0.9,0c0.4,0,0.7,0,0.9,0s0.5,0.1,0.7,0.1s0.3,0.1,0.4,0.2c0.1,0.1,0.2,0.2,0.2,0.4
		L490.9,60z M475.2,27.1L475.2,27.1L468,47.5h14.5L475.2,27.1z"/>
	<path class="st0" d="M516.8,59.5c0,0.3,0,0.5-0.1,0.7s-0.1,0.4-0.2,0.5s-0.2,0.3-0.3,0.3s-0.3,0.1-0.4,0.1h-16.4
		c-0.4,0-0.7-0.1-1.1-0.4s-0.6-0.7-0.6-1.5V23.8c0-0.1,0-0.2,0.1-0.3c0.1-0.1,0.2-0.2,0.3-0.2s0.3-0.1,0.6-0.1
		c0.2,0,0.5-0.1,0.8-0.1c0.4,0,0.6,0,0.9,0.1c0.2,0,0.4,0.1,0.5,0.1s0.2,0.1,0.3,0.2c0.1,0.1,0.1,0.2,0.1,0.3v34.1h14.5
		c0.2,0,0.3,0,0.4,0.1s0.2,0.2,0.3,0.3s0.1,0.3,0.2,0.5S516.8,59.2,516.8,59.5z"/>
	<path class="st0" d="M548.9,47.2c0,2.3-0.3,4.4-1,6.2s-1.6,3.3-2.8,4.5s-2.7,2.2-4.4,2.8s-3.6,1-5.8,1c-1.9,0-3.7-0.3-5.3-0.9
		s-3-1.5-4.2-2.7s-2.1-2.6-2.8-4.4c-0.7-1.7-1-3.8-1-6V23.8c0-0.1,0-0.2,0.1-0.3c0.1-0.1,0.2-0.2,0.3-0.2s0.3-0.1,0.5-0.1
		c0.2,0,0.5-0.1,0.8-0.1c0.3,0,0.6,0,0.8,0.1c0.2,0,0.4,0.1,0.6,0.1s0.2,0.1,0.3,0.2c0.1,0.1,0.1,0.2,0.1,0.3V47
		c0,1.9,0.2,3.6,0.7,5s1.1,2.6,2,3.6s1.9,1.7,3.2,2.1s2.6,0.7,4.2,0.7c1.6,0,3-0.2,4.2-0.7s2.3-1.2,3.1-2.1s1.5-2.1,2-3.5
		c0.5-1.4,0.7-3,0.7-4.9V23.8c0-0.1,0-0.2,0.1-0.3c0.1-0.1,0.2-0.2,0.3-0.2s0.3-0.1,0.6-0.1c0.2,0,0.5-0.1,0.8-0.1s0.6,0,0.8,0.1
		c0.2,0,0.4,0.1,0.6,0.1s0.2,0.1,0.3,0.2c0.1,0.1,0.1,0.2,0.1,0.3V47.2z"/>
	<path class="st0" d="M582.9,24.9c0,0.3,0,0.5-0.1,0.7c0,0.2-0.1,0.4-0.2,0.5c-0.1,0.1-0.2,0.2-0.3,0.3c-0.1,0.1-0.2,0.1-0.4,0.1
		h-11.3v34.1c0,0.1,0,0.2-0.1,0.3s-0.2,0.2-0.3,0.2s-0.3,0.1-0.6,0.1s-0.5,0.1-0.8,0.1s-0.6,0-0.8-0.1s-0.4-0.1-0.6-0.1
		s-0.2-0.1-0.3-0.2s-0.1-0.2-0.1-0.3V26.4h-11.3c-0.2,0-0.3,0-0.4-0.1c-0.1-0.1-0.2-0.2-0.3-0.3c-0.1-0.1-0.1-0.3-0.2-0.5
		c0-0.2-0.1-0.4-0.1-0.7c0-0.3,0-0.5,0.1-0.7s0.1-0.4,0.2-0.5c0.1-0.1,0.2-0.2,0.3-0.3c0.1-0.1,0.2-0.1,0.4-0.1H582
		c0.1,0,0.3,0,0.4,0.1c0.1,0.1,0.2,0.2,0.3,0.3c0.1,0.1,0.1,0.3,0.2,0.5S582.9,24.6,582.9,24.9z"/>
</g>
<g>
</g>
</svg>
